<svg width="46" height="44" viewBox="0 0 46 44" fill="none" xmlns="http://www.w3.org/2000/svg">
<path d="M0 5.73913C0 2.5695 2.57436 0 5.75 0H40.25C43.4256 0 46 2.5695 46 5.73913V28.6957C46 31.8653 43.4256 34.4348 40.25 34.4348H33.0625C32.1576 34.4348 31.3055 34.86 30.7625 35.5826L25.3 42.8522C24.15 44.3826 21.85 44.3826 20.7 42.8522L15.2375 35.5826C14.6945 34.86 13.8424 34.4348 12.9375 34.4348H5.75C2.57436 34.4348 0 31.8653 0 28.6957V5.73913ZM10.0625 8.6087C9.26859 8.6087 8.625 9.25107 8.625 10.0435C8.625 10.8359 9.26859 11.4783 10.0625 11.4783H35.9375C36.7314 11.4783 37.375 10.8359 37.375 10.0435C37.375 9.25107 36.7314 8.6087 35.9375 8.6087H10.0625ZM10.0625 15.7826C9.26859 15.7826 8.625 16.425 8.625 17.2174C8.625 18.0098 9.26859 18.6522 10.0625 18.6522H35.9375C36.7314 18.6522 37.375 18.0098 37.375 17.2174C37.375 16.425 36.7314 15.7826 35.9375 15.7826H10.0625ZM10.0625 22.9565C9.26859 22.9565 8.625 23.5989 8.625 24.3913C8.625 25.1837 9.26859 25.8261 10.0625 25.8261H24.4375C25.2314 25.8261 25.875 25.1837 25.875 24.3913C25.875 23.5989 25.2314 22.9565 24.4375 22.9565H10.0625Z" fill="#003B70"/>
</svg>
