<svg width="61" height="52" viewBox="0 0 61 52" fill="none" xmlns="http://www.w3.org/2000/svg">
<path d="M33.8293 0.172852C36.5891 -0.53828 39.4188 1.00842 40.1487 3.62793L45.5139 22.8848L57.0715 25.8643C59.2041 26.4138 60.4741 28.5074 59.9075 30.541L54.7776 48.9512C54.211 50.9846 52.0233 52.1879 49.8909 51.6387L26.7229 45.6689C24.5904 45.1194 23.3204 43.0248 23.887 40.9912L24.6887 38.1123L13.0989 41.0996C10.3393 41.8107 7.5106 40.2638 6.78052 37.6445L0.173096 13.9287C-0.556755 11.3093 1.08827 8.60964 3.8479 7.89844L33.8293 0.172852ZM46.7561 27.3428C47.486 29.9623 45.8401 32.6629 43.0803 33.374L26.9182 37.5381L26.3313 39.6484L32.6477 36.6318C33.0594 36.4055 33.5826 36.4882 33.8977 36.8301L38.1223 41.417L47.1877 36.4316C47.5596 36.2272 48.0286 36.2739 48.3508 36.5469L54.6428 42.0107L57.9768 30.043C58.2598 29.0263 57.625 27.9798 56.5588 27.7051L46.1057 25.0117L46.7561 27.3428ZM37.6497 4.27148C37.2846 2.96188 35.8703 2.1884 34.4905 2.54395L4.50903 10.2695C3.12916 10.6251 2.30621 11.9754 2.67114 13.2852L8.61841 34.6289L13.675 27.3438C13.9848 26.8356 14.6274 26.6032 15.2102 26.7891L23.0247 29.2812L29.843 18.0938C30.1227 17.635 30.6784 17.3957 31.2229 17.5L41.9446 19.6865L37.6497 4.27148ZM12.0764 13.4033C14.1462 12.87 16.2683 14.0305 16.8157 15.9951C17.3628 17.9596 16.1285 19.9842 14.0588 20.5176C11.989 21.0509 9.86698 19.8904 9.31958 17.9258C8.77255 15.9614 10.0069 13.9367 12.0764 13.4033Z" fill="#003B70"/>
</svg>
