<svg width="45" height="33" viewBox="0 0 45 33" fill="none" xmlns="http://www.w3.org/2000/svg">
<path d="M42.2729 6.12503C41.8209 6.07282 41.3634 6.15393 40.9569 6.35836L30.3333 11.6667V21L40.9569 26.3084C41.3122 26.4859 41.7069 26.5698 42.1037 26.5521C42.5005 26.5345 42.8862 26.4158 43.2244 26.2074C43.5625 25.999 43.8418 25.7077 44.0358 25.3611C44.2299 25.0146 44.3322 24.6242 44.3333 24.227V8.43969C44.3326 7.86859 44.1225 7.31755 43.7428 6.89096C43.3631 6.46436 42.8401 6.19185 42.2729 6.12503Z" fill="#003B70"/>
<path d="M7 0C3.16167 0 0 3.16167 0 7V25.6667C0 29.505 3.16167 32.6667 7 32.6667H25.6667C29.505 32.6667 32.6667 29.505 32.6667 25.6667V7C32.6667 3.16167 29.505 0 25.6667 0H7Z" fill="#003B70"/>
</svg>
