<svg width="50" height="58" viewBox="0 0 50 58" fill="none" xmlns="http://www.w3.org/2000/svg">
<path d="M23.5294 23.1998C25.0135 23.1993 26.4428 23.752 27.531 24.7469C28.6192 25.7419 29.2858 27.1056 29.3971 28.5648L29.4118 28.9998V52.2C29.4122 53.6632 28.8517 55.0726 27.8427 56.1456C26.8336 57.2185 25.4505 57.8758 23.9706 57.9855L23.5294 58H5.88235C4.3983 58.0005 2.96892 57.4478 1.88074 56.4529C0.792561 55.4579 0.12601 54.0941 0.0147065 52.635L2.94906e-07 52.2V28.9998C-0.000469351 27.5365 0.560019 26.1271 1.56911 25.0542C2.5782 23.9812 3.96131 23.324 5.44118 23.2143L5.88235 23.1998H23.5294ZM44.1176 31.8998C45.6017 31.8994 47.0311 32.452 48.1193 33.447C49.2074 34.4419 49.874 35.8057 49.9853 37.2649L50 37.6999V52.2C50.0005 53.6632 49.44 55.0726 48.4309 56.1456C47.4218 57.2185 46.0387 57.8758 44.5588 57.9855L44.1176 58H33.7206C34.6175 56.4669 35.1467 54.7517 35.2676 52.9859L35.2941 52.2V31.8998H44.1176ZM37.2471 11.8607C39.0559 12.6785 40.7206 14.143 41.9324 15.8018C43.1382 17.4548 44.1176 19.6066 44.1176 21.9122C44.1176 26.4565 40.0382 28.9998 36.55 28.9998C33.8 28.9998 31.3853 27.1148 30.2382 24.9398C29.5611 23.681 29.2922 22.2477 29.4676 20.8334C29.6706 19.2876 30.4176 17.8434 31.6676 16.6283C32.2294 16.0773 32.5147 15.7293 32.6971 15.4103C32.8618 15.129 33.0147 14.7491 33.1147 14.0821C33.1803 13.6365 33.3503 13.212 33.6111 12.8424C33.872 12.4727 34.2165 12.1681 34.6175 11.9525C35.0185 11.737 35.4649 11.6164 35.9213 11.6005C36.3777 11.5846 36.8316 11.6736 37.2471 11.8607ZM14.8765 0.231619C17.0912 1.16833 19.1941 2.88514 20.7471 4.87745C22.2882 6.85816 23.5294 9.42758 23.5294 12.1623C23.5294 17.4983 18.4853 20.2998 14.4206 20.2998C11.2941 20.2998 8.35882 18.2581 6.91176 15.6858C6.07254 14.2309 5.736 12.5463 5.95294 10.8863C6.20294 9.08248 7.13235 7.40917 8.66471 6.00846C9.44412 5.29795 9.88235 4.80785 10.1765 4.32935C10.4471 3.89144 10.6706 3.34334 10.8118 2.45303C10.8809 2.01633 11.0503 1.60098 11.3071 1.23871C11.5638 0.876441 11.9012 0.576835 12.2934 0.362785C12.6856 0.148734 13.1222 0.0259011 13.5699 0.00367081C14.0175 -0.0185595 14.4645 0.0604011 14.8765 0.23452" fill="#003B70"/>
</svg>
