<svg width="45" height="45" viewBox="0 0 45 45" fill="none" xmlns="http://www.w3.org/2000/svg">
<path d="M41.342 0.1301L13.2196 8.43489C12.6488 8.61421 12.15 8.97092 11.7958 9.45317C11.4415 9.93542 11.2504 10.5181 11.25 11.1164V34.0919C10.329 33.8684 9.38519 33.7528 8.4375 33.7474C3.7793 33.7474 0 36.2663 0 39.3724C0 42.4784 3.7793 44.9974 8.4375 44.9974C13.0957 44.9974 16.875 42.4784 16.875 39.3724V18.8341L39.375 12.2423V28.4678C38.4542 28.2435 37.5103 28.1276 36.5625 28.1224C31.9043 28.1224 28.125 30.6413 28.125 33.7474C28.125 36.8534 31.9043 39.3724 36.5625 39.3724C41.2207 39.3724 45 36.8543 45 33.7474V2.80989C44.9996 2.36836 44.8952 1.93313 44.6954 1.53943C44.4955 1.14572 44.2058 0.804601 43.8496 0.543672C43.4934 0.282743 43.0808 0.109337 42.6452 0.0374884C42.2095 -0.0343606 41.7631 -0.00263414 41.342 0.1301Z" fill="#003B70"/>
</svg>
