<svg width="28" height="28" viewBox="0 0 28 28" fill="none" xmlns="http://www.w3.org/2000/svg">
<path d="M18.3031 6.33673C16.9277 5.54835 15.3622 5.14696 13.7746 5.17565C12.187 5.20435 10.6372 5.66203 9.29164 6.49959C7.94603 7.33714 6.85539 8.52295 6.13677 9.92973C5.41815 11.3365 5.09869 12.9112 5.21266 14.4847C5.32663 16.0582 5.86975 17.5712 6.7837 18.8613C7.69766 20.1513 8.94796 21.1698 10.4004 21.8073C11.8529 22.4448 13.4526 22.6773 15.028 22.4798C16.6034 22.2823 18.0949 21.6624 19.3425 20.6865C19.8386 21.1076 20.4715 21.336 21.124 21.3293C21.43 21.3293 21.7193 21.2852 21.9918 21.1968C18.6059 24.8747 12.9914 25.8585 8.46663 23.2632C3.23908 20.2662 1.44775 13.624 4.46646 8.43028C7.48516 3.23657 14.1685 1.459 19.3961 4.456C24.123 7.16741 26.04 12.8552 24.1329 17.7601C24.0972 17.081 23.9114 16.3636 23.5755 15.6079C23.386 15.1837 23.0862 14.6154 22.676 13.9031C22.6836 12.3709 22.2833 10.8639 21.5155 9.53508C20.7477 8.20624 19.6387 7.10281 18.3031 6.33673Z" fill="#003B70"/>
<path d="M22.5274 19.3239C22.342 19.5041 22.1226 19.6461 21.8817 19.7417C21.6409 19.8373 21.3834 19.8846 21.1241 19.881C20.5776 19.881 20.1098 19.6953 19.7208 19.3239C19.5342 19.1538 19.3859 18.9465 19.2853 18.7157C19.1848 18.4848 19.1343 18.2355 19.1371 17.984C19.1371 17.5568 19.2613 17.1026 19.5098 16.6212C19.7583 16.1391 20.2964 15.329 21.1241 14.191C21.9518 15.329 22.4903 16.1391 22.7395 16.6212C22.9872 17.1033 23.1111 17.5576 23.1111 17.984C23.1111 18.5052 22.9165 18.9518 22.5274 19.3239ZM10.9411 11.1875C10.9084 11.3547 10.7991 11.6696 10.5936 11.9606C10.3925 12.2462 10.1346 12.4612 9.80667 12.5481C9.48097 12.635 9.14872 12.5774 8.83067 12.4308C8.57008 12.3113 8.33574 12.1419 8.14103 11.9324L6.90491 13.0031C7.15519 13.2876 7.588 13.6524 8.13993 13.9076C8.69733 14.165 9.43179 14.3343 10.2318 14.1215C11.0308 13.9087 11.5827 13.3972 11.9368 12.8967C12.2855 12.4026 12.4767 11.8716 12.55 11.5002L10.9411 11.1875ZM16.9217 11.1875C16.9545 11.3547 17.0638 11.6696 17.2693 11.9606C17.4704 12.2462 17.7283 12.4612 18.0562 12.5481C18.3819 12.635 18.7141 12.5774 19.0322 12.4308C19.3568 12.2799 19.6093 12.0616 19.7218 11.9324L20.958 13.0031C20.612 13.3844 20.1919 13.6921 19.7229 13.9076C19.1655 14.165 18.4311 14.3343 17.631 14.1215C16.831 13.9087 16.2802 13.3972 15.9261 12.8967C15.6289 12.4771 15.4203 12.0021 15.3129 11.5002L16.9217 11.1875ZM11.9554 19.5226C11.8757 19.6413 11.7733 19.7432 11.654 19.8225C11.5348 19.9018 11.4009 19.957 11.2601 19.9849C11.1194 20.0129 10.9744 20.013 10.8336 19.9853C10.6928 19.9576 10.5589 19.9026 10.4395 19.8234C10.3201 19.7443 10.2175 19.6425 10.1377 19.524C10.0578 19.4055 10.0023 19.2725 9.97415 19.1327C9.94604 18.9928 9.94593 18.8488 9.97383 18.7089C10.0017 18.569 10.0571 18.436 10.1367 18.3173C11.1313 16.8351 12.8494 16.4008 13.9314 16.4008C15.0134 16.4008 16.7316 16.8351 17.7261 18.3184C17.887 18.558 17.9455 18.8513 17.8887 19.1337C17.8319 19.4162 17.6646 19.6647 17.4234 19.8245C17.1822 19.9843 16.887 20.0424 16.6027 19.986C16.3184 19.9296 16.0683 19.7633 15.9075 19.5237C15.4594 18.8559 14.5817 18.5725 13.9314 18.5725C13.2811 18.5725 12.4024 18.8559 11.9554 19.5226Z" fill="#003B70"/>
</svg>
