<svg width="28" height="28" viewBox="0 0 28 28" fill="none" xmlns="http://www.w3.org/2000/svg">
<path d="M23 16.2367C23.0017 15.2538 22.7658 14.2864 22.3143 13.4251C22.3723 13.3351 22.4217 13.2392 22.4625 13.1374C22.5661 12.8777 22.603 12.594 22.5697 12.3146C22.5365 12.0353 22.4341 11.7699 22.2728 11.5449C22.1115 11.3198 21.8968 11.143 21.6502 11.0319C21.4036 10.9208 21.1336 10.8793 20.8669 10.9115C20.9839 10.6642 21.0767 10.4062 21.1454 10.1374L21.6564 8.14598C21.9346 7.21838 21.8775 6.21581 21.4961 5.32951C21.1147 4.44321 20.4356 3.73521 19.5883 3.34058C18.7411 2.94595 17.785 2.8923 16.9024 3.18987C16.0199 3.48744 15.2726 4.11539 14.8032 4.95395C14.3734 4.33239 13.7463 3.89198 13.0347 3.71186C12.3231 3.53173 11.5736 3.62369 10.9208 3.97121C10.268 4.31874 9.75479 4.89905 9.47328 5.60789C9.19177 6.31673 9.16044 7.10764 9.38493 7.83854H7.79C5.03455 7.83854 3.9527 11.587 6.24519 13.19L7.59577 14.135L6.65385 18.0113C6.5361 18.479 6.52322 18.969 6.61622 19.4429C6.70922 19.9167 6.90558 20.3616 7.1899 20.7425C7.56142 21.2448 8.06837 21.6184 8.6449 21.8145V24.2697C8.6449 24.4634 8.71825 24.6492 8.84881 24.7861C8.97936 24.9231 9.15644 25 9.34108 25H22.3038C22.4885 25 22.6655 24.9231 22.7961 24.7861C22.9266 24.6492 23 24.4634 23 24.2697V16.2367ZM13.2536 21.9694H15.1472C15.5504 21.9694 15.9376 21.8034 16.2253 21.507C16.5131 21.2107 16.6784 20.8076 16.6857 20.3847C16.6857 20.1683 16.645 19.954 16.5658 19.7542C16.4867 19.5543 16.3706 19.3729 16.2245 19.2202C16.0783 19.0675 15.9048 18.9467 15.7139 18.8645C15.5231 18.7824 15.3186 18.7406 15.1124 18.7415H13.2536V16.7267C13.2536 16.6065 13.2253 16.4882 13.1713 16.3822C13.1172 16.2762 13.0391 16.1858 12.9438 16.1191L7.01725 11.9748C5.87135 11.173 6.41228 9.29909 7.79 9.29909H9.76574L9.93282 9.94903C10.0921 10.5708 10.4159 11.1326 10.8668 11.5694C11.3177 12.0062 11.8773 12.3002 12.4808 12.4174C12.8732 12.4894 13.2756 12.4757 13.6627 12.3772C14.0499 12.2787 14.4135 12.0975 14.7308 11.8448C14.7694 11.8516 14.8088 11.8551 14.8492 11.8551H17.4306C17.6975 11.8555 17.9574 11.8809 18.2103 11.931L16.4629 12.6364C16.129 12.7725 15.8508 13.0266 15.6763 13.3548C15.5018 13.6831 15.442 14.0649 15.5072 14.4344C15.5723 14.804 15.7584 15.1381 16.0333 15.3791C16.3082 15.6201 16.6546 15.753 17.0129 15.7547C17.2037 15.7547 17.3923 15.7175 17.5698 15.6452L21.1336 14.2065C21.4364 14.8127 21.6076 15.5042 21.6076 16.2367V23.5395H13.2536V21.9694ZM15.7633 10.3945C15.7897 10.3224 15.8141 10.2494 15.8364 10.1754C16.0188 9.5612 16.0311 8.90528 15.8719 8.28401L15.56 7.10023L15.7271 6.44736L15.7312 6.42984C15.7991 6.09904 15.9302 5.78615 16.1168 5.51015C16.3034 5.23415 16.5415 5.00079 16.8167 4.82425C17.0919 4.64771 17.3984 4.53166 17.7176 4.48315C18.0368 4.43464 18.3621 4.45467 18.6737 4.54204C18.9853 4.62941 19.2768 4.78228 19.5304 4.99139C19.784 5.2005 19.9944 5.46148 20.1489 5.75849C20.3034 6.0555 20.3988 6.38235 20.4292 6.7192C20.4597 7.05604 20.4246 7.39587 20.326 7.71804L20.3211 7.73411L19.8011 9.76062C19.7091 10.1184 19.548 10.4525 19.3277 10.7421C18.7194 10.5116 18.0774 10.3939 17.4306 10.3945H15.7633Z" fill="#003B70"/>
</svg>
