<svg width="28" height="28" viewBox="0 0 28 28" fill="none" xmlns="http://www.w3.org/2000/svg">
<path d="M12.0927 6.53237C13.8025 4.25601 16.3732 3.59127 18.738 4.2309C21.2907 4.92074 23.5351 7.09787 24.2805 10.1298C24.319 10.2853 24.3523 10.4407 24.3804 10.5961C23.3045 10.2154 22.1342 10.1861 21.0403 10.5124C19.4906 9.37423 17.5713 9.18294 15.8651 9.80702C13.7278 10.5901 12.059 12.576 11.6725 15.0747C11.1788 18.274 13.1414 21.1482 15.9169 23.5919L16.3841 23.9936C16.0072 24.0199 15.6243 23.9613 15.2582 23.8836C15.0701 23.8434 14.8831 23.7988 14.6971 23.7497L14.0505 23.5704C8.30222 21.9647 4.45396 19.4529 3.34981 15.6988C2.46842 12.7027 3.3161 9.70301 5.18002 7.83792C6.90668 6.11033 9.46657 5.40973 12.0927 6.53237ZM14.0529 15.4369C14.5683 12.0989 18.4563 10.4538 20.4527 13.3184C20.4718 13.345 20.5007 13.3631 20.5332 13.3687C20.5656 13.3743 20.599 13.367 20.626 13.3483C23.4882 11.335 26.5742 14.2007 25.9084 17.5125C25.5231 19.4333 23.729 21.0274 20.5261 22.2947L20.0023 22.498L19.6857 22.6271C19.4123 22.7335 19.1233 22.8184 18.8621 22.7729C18.602 22.7275 18.36 22.5482 18.1396 22.3569L17.7663 22.0221C14.9809 19.6422 13.7431 17.4471 14.0529 15.4369Z" fill="#003B70"/>
</svg>
