<svg width="566" height="255" viewBox="0 0 566 255" fill="none" xmlns="http://www.w3.org/2000/svg">
<path d="M14.5785 86.1017C16.3968 66.028 31.1107 38.9296 11.9611 8.09845C-5.70319 -17.5331 100.541 20.169 100.541 86.1018C100.48 115.282 82.6173 132.682 73.2118 134.752C86.6881 107.611 70.0386 79.5834 58.4043 77.573C45.4907 82.5409 38.2997 110.202 52.99 137.231C27.5486 130.352 12.7602 106.175 14.5785 86.1017Z" fill="url(#paint0_linear_2287_1788)"/>
<path d="M183.095 98.9718C183.095 88.2046 172.207 56.4478 187.726 31.4614C202.042 10.6889 115.939 41.2437 115.939 94.6773C115.988 118.326 130.464 132.427 138.087 134.105C127.165 112.109 140.659 89.3947 150.087 87.7654C160.553 91.7915 166.381 114.209 154.475 136.114C175.094 130.539 183.095 109.739 183.095 98.9718Z" fill="url(#paint1_linear_2287_1788)"/>
<path d="M68.198 124.722C68.6037 132.524 66.36 138.97 63.1866 139.118C60.0132 139.267 57.1118 133.062 56.7061 125.26C56.3004 117.457 58.544 111.012 61.7174 110.863C64.8908 110.715 67.7923 116.92 68.198 124.722Z" fill="url(#paint2_linear_2287_1788)"/>
<path d="M142.15 125.976C141.821 132.299 143.639 137.523 146.211 137.643C148.783 137.764 151.134 132.735 151.463 126.412C151.792 120.089 149.973 114.865 147.402 114.745C144.83 114.624 142.478 119.653 142.15 125.976Z" fill="url(#paint3_linear_2287_1788)"/>
<path d="M91.0335 169.153C91.0502 169.122 100.257 151.764 108.352 160.548C116.454 169.34 94.6684 186.727 91.685 188.331C86.2905 185.633 66.3054 170.577 74.3769 163.1C82.4375 155.634 91.0103 169.117 91.0335 169.153Z" fill="url(#paint4_radial_2287_1788)"/>
<path d="M169.741 143.064C185.354 142.093 200.214 149.042 207.171 162.073C212.66 172.355 212.044 184.205 206.625 194.383C204.948 198.172 201.979 202.072 197.396 206.042C194.287 208.814 190.693 211.241 186.663 213.198C183.527 214.721 180.305 215.873 177.061 216.672C131.892 228.93 63.7554 192.612 63.5444 192.499L63.9131 192.32C64.2272 192.442 121.513 214.687 162.737 201.669C165.7 200.794 168.675 199.648 171.607 198.225C175.391 196.387 178.825 194.219 181.852 191.825C186.246 188.432 189.215 185.22 191.036 182.196C196.765 173.957 198.367 164.824 194.397 157.388C189.801 148.779 180.887 143.166 169.741 143.064Z" fill="url(#paint5_linear_2287_1788)"/>
<path d="M59.929 149.467C37.9231 146.958 16.4036 155.953 5.99451 174.048C-2.04212 188.019 -1.72203 204.402 5.30474 218.669C7.44594 223.952 11.3544 229.438 17.4737 235.084C21.6504 239.052 26.5173 242.561 32.0106 245.435C36.2775 247.667 40.6802 249.389 45.1296 250.622C106.938 269.348 202.617 221.949 202.861 221.828L202.36 221.566C202.223 221.615 121.943 250.162 65.5222 230.478C61.4797 229.153 57.4332 227.455 53.4594 225.376C48.351 222.703 43.7349 219.596 39.6825 216.195C33.7274 211.311 29.7506 206.738 27.362 202.472C19.8239 190.87 18.0213 178.2 23.8334 168.096C30.4952 156.515 43.9782 149.248 59.929 149.467Z" fill="url(#paint6_linear_2287_1788)"/>
<path d="M270.45 174.55C270.45 175.75 269.7 176.5 268.5 176.5H257.25C256.2 176.5 255.45 175.75 255.45 174.55V76.3C255.45 75.25 256.2 74.5 257.25 74.5H269.7C271.2 74.5 272.1 74.95 272.85 76.15L322.2 152.95V76.3C322.2 75.25 322.95 74.5 324 74.5H335.25C336.45 74.5 337.2 75.25 337.2 76.3V174.55C337.2 175.75 336.45 176.5 335.25 176.5H323.25C321.9 176.5 321.15 175.9 320.1 174.4L270.45 98.05V174.55ZM386.994 178C366.894 178 354.744 166 354.744 146.05C354.744 126.25 366.894 114.25 386.994 114.25C406.944 114.25 419.094 126.25 419.094 146.05C419.094 166 406.944 178 386.994 178ZM386.994 165.4C397.494 165.4 403.344 157.75 403.344 146.05C403.344 134.5 397.494 126.7 386.994 126.7C376.494 126.7 370.644 134.5 370.644 146.05C370.644 157.75 376.494 165.4 386.994 165.4ZM488.848 172.9C482.398 176.35 472.948 178 464.248 178C442.048 178 429.448 166 429.448 146.05C429.448 126.25 441.748 114.25 460.798 114.25C477.598 114.25 488.698 125.2 488.698 141.85C488.698 143.2 488.698 145.45 488.398 146.95C488.248 148.15 487.648 148.6 486.298 148.6H445.048C446.248 159.7 453.598 166.15 465.598 166.15C472.798 166.15 479.848 163.9 484.348 161.95C485.998 161.35 486.748 161.65 487.348 163.15L489.748 170.2C490.198 171.4 490.198 172.15 488.848 172.9ZM460.498 125.65C452.548 125.65 446.698 131.5 445.198 140.65H474.598C473.698 130.3 468.598 125.65 460.498 125.65ZM503.807 174.55V76.3C503.807 75.25 504.707 74.5 505.757 74.5H516.857C518.207 74.5 518.807 75.25 518.807 76.3V138.85L542.657 117.25C544.007 115.9 544.757 115.75 547.007 115.75H558.107C560.207 115.75 560.657 116.95 559.007 118.45L531.857 143.05L563.207 173.65C564.857 175.45 564.107 176.5 562.307 176.5H549.257C546.707 176.5 545.957 175.9 544.607 174.25L518.807 147.85V174.55C518.807 175.75 518.207 176.5 516.857 176.5H505.757C504.707 176.5 503.807 175.75 503.807 174.55Z" fill="#49376C"/>
<defs>
<linearGradient id="paint0_linear_2287_1788" x1="99.6557" y1="0" x2="99.6557" y2="137.231" gradientUnits="userSpaceOnUse">
<stop stop-color="#F9D2CF"/>
<stop offset="0.8" stop-color="#DA9B53"/>
</linearGradient>
<linearGradient id="paint1_linear_2287_1788" x1="99.6557" y1="0" x2="99.6557" y2="137.231" gradientUnits="userSpaceOnUse">
<stop stop-color="#F9D2CF"/>
<stop offset="0.8" stop-color="#DA9B53"/>
</linearGradient>
<linearGradient id="paint2_linear_2287_1788" x1="104.08" y1="110.861" x2="104.08" y2="139.121" gradientUnits="userSpaceOnUse">
<stop stop-color="#694EC4"/>
<stop offset="0.8" stop-color="#372951"/>
</linearGradient>
<linearGradient id="paint3_linear_2287_1788" x1="104.08" y1="110.861" x2="104.08" y2="139.121" gradientUnits="userSpaceOnUse">
<stop stop-color="#694EC4"/>
<stop offset="0.8" stop-color="#372951"/>
</linearGradient>
<radialGradient id="paint4_radial_2287_1788" cx="0" cy="0" r="1" gradientUnits="userSpaceOnUse" gradientTransform="translate(91.3139 173.199) scale(18.8324 15.1322)">
<stop stop-color="#FBC17F"/>
<stop offset="1" stop-color="#DA9B53"/>
</radialGradient>
<linearGradient id="paint5_linear_2287_1788" x1="105.5" y1="142.975" x2="105.5" y2="255" gradientUnits="userSpaceOnUse">
<stop stop-color="#694EC4"/>
<stop offset="0.8" stop-color="#372951"/>
</linearGradient>
<linearGradient id="paint6_linear_2287_1788" x1="105.5" y1="142.975" x2="105.5" y2="255" gradientUnits="userSpaceOnUse">
<stop stop-color="#694EC4"/>
<stop offset="0.8" stop-color="#372951"/>
</linearGradient>
</defs>
</svg>
